<mxfile host="app.diagrams.net" modified="2023-01-29T14:24:38.458Z" agent="5.0 (Windows NT 10.0; Win64; x64) AppleWebKit/537.36 (KHTML, like Gecko) Chrome/109.0.0.0 Safari/537.36" etag="do9epA20fmQl0cfX69D1" version="20.8.13" type="github">
  <diagram id="R2lEEEUBdFMjLlhIrx00" name="Page-1">
    <mxGraphModel dx="1222" dy="723" grid="1" gridSize="10" guides="1" tooltips="1" connect="1" arrows="1" fold="1" page="1" pageScale="1" pageWidth="850" pageHeight="1100" math="0" shadow="0" extFonts="Permanent Marker^https://fonts.googleapis.com/css?family=Permanent+Marker">
      <root>
        <mxCell id="0" />
        <mxCell id="1" parent="0" />
        <mxCell id="MLSnyZNdqDpaeL57f0Zs-5" value="product" style="swimlane;fontStyle=0;childLayout=stackLayout;horizontal=1;startSize=26;horizontalStack=0;resizeParent=1;resizeParentMax=0;resizeLast=0;collapsible=1;marginBottom=0;align=center;fontSize=14;" vertex="1" parent="1">
          <mxGeometry x="20" y="80" width="170" height="178" as="geometry" />
        </mxCell>
        <mxCell id="MLSnyZNdqDpaeL57f0Zs-6" value="+ id: PK INT" style="text;strokeColor=none;fillColor=none;spacingLeft=4;spacingRight=4;overflow=hidden;rotatable=0;points=[[0,0.5],[1,0.5]];portConstraint=eastwest;fontSize=12;" vertex="1" parent="MLSnyZNdqDpaeL57f0Zs-5">
          <mxGeometry y="26" width="170" height="30" as="geometry" />
        </mxCell>
        <mxCell id="MLSnyZNdqDpaeL57f0Zs-7" value="+ name: VARCHAR(60)" style="text;strokeColor=none;fillColor=none;spacingLeft=4;spacingRight=4;overflow=hidden;rotatable=0;points=[[0,0.5],[1,0.5]];portConstraint=eastwest;fontSize=12;" vertex="1" parent="MLSnyZNdqDpaeL57f0Zs-5">
          <mxGeometry y="56" width="170" height="30" as="geometry" />
        </mxCell>
        <mxCell id="MLSnyZNdqDpaeL57f0Zs-8" value="+ decription:VARCHAR(255)&#xa;&#xa;+ price: INT&#xa;&#xa;+ category:FK Category INT" style="text;strokeColor=none;fillColor=none;spacingLeft=4;spacingRight=4;overflow=hidden;rotatable=0;points=[[0,0.5],[1,0.5]];portConstraint=eastwest;fontSize=12;" vertex="1" parent="MLSnyZNdqDpaeL57f0Zs-5">
          <mxGeometry y="86" width="170" height="92" as="geometry" />
        </mxCell>
        <mxCell id="MLSnyZNdqDpaeL57f0Zs-9" value="Category" style="swimlane;fontStyle=0;childLayout=stackLayout;horizontal=1;startSize=26;horizontalStack=0;resizeParent=1;resizeParentMax=0;resizeLast=0;collapsible=1;marginBottom=0;align=center;fontSize=14;" vertex="1" parent="1">
          <mxGeometry x="250" y="10" width="170" height="86" as="geometry" />
        </mxCell>
        <mxCell id="MLSnyZNdqDpaeL57f0Zs-10" value="+ id: PK INT" style="text;strokeColor=none;fillColor=none;spacingLeft=4;spacingRight=4;overflow=hidden;rotatable=0;points=[[0,0.5],[1,0.5]];portConstraint=eastwest;fontSize=12;" vertex="1" parent="MLSnyZNdqDpaeL57f0Zs-9">
          <mxGeometry y="26" width="170" height="30" as="geometry" />
        </mxCell>
        <mxCell id="MLSnyZNdqDpaeL57f0Zs-11" value="+ name: VARCHAR(60)" style="text;strokeColor=none;fillColor=none;spacingLeft=4;spacingRight=4;overflow=hidden;rotatable=0;points=[[0,0.5],[1,0.5]];portConstraint=eastwest;fontSize=12;" vertex="1" parent="MLSnyZNdqDpaeL57f0Zs-9">
          <mxGeometry y="56" width="170" height="30" as="geometry" />
        </mxCell>
        <mxCell id="MLSnyZNdqDpaeL57f0Zs-13" value="" style="edgeStyle=entityRelationEdgeStyle;fontSize=12;html=1;endArrow=ERoneToMany;rounded=0;entryX=1.002;entryY=0.794;entryDx=0;entryDy=0;entryPerimeter=0;exitX=0;exitY=0.5;exitDx=0;exitDy=0;" edge="1" parent="1" source="MLSnyZNdqDpaeL57f0Zs-10" target="MLSnyZNdqDpaeL57f0Zs-8">
          <mxGeometry width="100" height="100" relative="1" as="geometry">
            <mxPoint x="360" y="71" as="sourcePoint" />
            <mxPoint x="350" y="100" as="targetPoint" />
          </mxGeometry>
        </mxCell>
        <mxCell id="MLSnyZNdqDpaeL57f0Zs-14" value="User" style="swimlane;fontStyle=0;childLayout=stackLayout;horizontal=1;startSize=26;horizontalStack=0;resizeParent=1;resizeParentMax=0;resizeLast=0;collapsible=1;marginBottom=0;align=center;fontSize=14;" vertex="1" parent="1">
          <mxGeometry x="280" y="150" width="210" height="262" as="geometry" />
        </mxCell>
        <mxCell id="MLSnyZNdqDpaeL57f0Zs-15" value="+ id: PK INT" style="text;strokeColor=none;fillColor=none;spacingLeft=4;spacingRight=4;overflow=hidden;rotatable=0;points=[[0,0.5],[1,0.5]];portConstraint=eastwest;fontSize=12;" vertex="1" parent="MLSnyZNdqDpaeL57f0Zs-14">
          <mxGeometry y="26" width="210" height="30" as="geometry" />
        </mxCell>
        <mxCell id="MLSnyZNdqDpaeL57f0Zs-16" value="+ name: VARCHAR(60)" style="text;strokeColor=none;fillColor=none;spacingLeft=4;spacingRight=4;overflow=hidden;rotatable=0;points=[[0,0.5],[1,0.5]];portConstraint=eastwest;fontSize=12;" vertex="1" parent="MLSnyZNdqDpaeL57f0Zs-14">
          <mxGeometry y="56" width="210" height="114" as="geometry" />
        </mxCell>
        <mxCell id="MLSnyZNdqDpaeL57f0Zs-17" value="+ surname:VARCHAR(60)&#xa;&#xa;+ username:VARCHAR(60)UNIQUE&#xa;&#xa;+ email:VARCHAR(120)UNIQUE" style="text;strokeColor=none;fillColor=none;spacingLeft=4;spacingRight=4;overflow=hidden;rotatable=0;points=[[0,0.5],[1,0.5]];portConstraint=eastwest;fontSize=12;" vertex="1" parent="MLSnyZNdqDpaeL57f0Zs-14">
          <mxGeometry y="170" width="210" height="92" as="geometry" />
        </mxCell>
        <mxCell id="MLSnyZNdqDpaeL57f0Zs-21" value="Customer" style="swimlane;fontStyle=0;childLayout=stackLayout;horizontal=1;startSize=26;horizontalStack=0;resizeParent=1;resizeParentMax=0;resizeLast=0;collapsible=1;marginBottom=0;align=center;fontSize=14;" vertex="1" parent="1">
          <mxGeometry x="570" y="60" width="190" height="96" as="geometry" />
        </mxCell>
        <mxCell id="MLSnyZNdqDpaeL57f0Zs-22" value="+ id: PK INT&#xa;+ cashback:INT&#xa;+ USER_ID:FK INT&#xa;&#xa;" style="text;strokeColor=none;fillColor=none;spacingLeft=4;spacingRight=4;overflow=hidden;rotatable=0;points=[[0,0.5],[1,0.5]];portConstraint=eastwest;fontSize=12;" vertex="1" parent="MLSnyZNdqDpaeL57f0Zs-21">
          <mxGeometry y="26" width="190" height="70" as="geometry" />
        </mxCell>
        <mxCell id="MLSnyZNdqDpaeL57f0Zs-25" value="" style="edgeStyle=entityRelationEdgeStyle;fontSize=12;html=1;endArrow=ERmandOne;startArrow=ERmandOne;rounded=0;" edge="1" parent="1">
          <mxGeometry width="100" height="100" relative="1" as="geometry">
            <mxPoint x="490" y="190" as="sourcePoint" />
            <mxPoint x="570" y="130" as="targetPoint" />
          </mxGeometry>
        </mxCell>
        <mxCell id="MLSnyZNdqDpaeL57f0Zs-26" value="Admin" style="swimlane;fontStyle=0;childLayout=stackLayout;horizontal=1;startSize=26;horizontalStack=0;resizeParent=1;resizeParentMax=0;resizeLast=0;collapsible=1;marginBottom=0;align=center;fontSize=14;" vertex="1" parent="1">
          <mxGeometry x="630" y="316" width="190" height="96" as="geometry" />
        </mxCell>
        <mxCell id="MLSnyZNdqDpaeL57f0Zs-27" value="+ id: PK INT&#xa;+ role_id: FK INT&#xa;+ USER_ID:FK INT&#xa;&#xa;" style="text;strokeColor=none;fillColor=none;spacingLeft=4;spacingRight=4;overflow=hidden;rotatable=0;points=[[0,0.5],[1,0.5]];portConstraint=eastwest;fontSize=12;" vertex="1" parent="MLSnyZNdqDpaeL57f0Zs-26">
          <mxGeometry y="26" width="190" height="70" as="geometry" />
        </mxCell>
        <mxCell id="MLSnyZNdqDpaeL57f0Zs-28" value="" style="edgeStyle=entityRelationEdgeStyle;fontSize=12;html=1;endArrow=ERmandOne;startArrow=ERmandOne;rounded=0;entryX=1;entryY=0.5;entryDx=0;entryDy=0;exitX=-0.036;exitY=0.646;exitDx=0;exitDy=0;exitPerimeter=0;" edge="1" parent="1" source="MLSnyZNdqDpaeL57f0Zs-27" target="MLSnyZNdqDpaeL57f0Zs-15">
          <mxGeometry width="100" height="100" relative="1" as="geometry">
            <mxPoint x="440" y="350" as="sourcePoint" />
            <mxPoint x="560" y="210" as="targetPoint" />
          </mxGeometry>
        </mxCell>
        <mxCell id="MLSnyZNdqDpaeL57f0Zs-29" value="Role" style="swimlane;fontStyle=0;childLayout=stackLayout;horizontal=1;startSize=26;horizontalStack=0;resizeParent=1;resizeParentMax=0;resizeLast=0;collapsible=1;marginBottom=0;align=center;fontSize=14;" vertex="1" parent="1">
          <mxGeometry x="140" y="490" width="190" height="96" as="geometry" />
        </mxCell>
        <mxCell id="MLSnyZNdqDpaeL57f0Zs-30" value="+ id: PK INT" style="text;strokeColor=none;fillColor=none;spacingLeft=4;spacingRight=4;overflow=hidden;rotatable=0;points=[[0,0.5],[1,0.5]];portConstraint=eastwest;fontSize=12;" vertex="1" parent="MLSnyZNdqDpaeL57f0Zs-29">
          <mxGeometry y="26" width="190" height="70" as="geometry" />
        </mxCell>
        <mxCell id="MLSnyZNdqDpaeL57f0Zs-31" value="" style="edgeStyle=entityRelationEdgeStyle;fontSize=12;html=1;endArrow=ERoneToMany;rounded=0;exitX=0.988;exitY=0.219;exitDx=0;exitDy=0;exitPerimeter=0;" edge="1" parent="1" source="MLSnyZNdqDpaeL57f0Zs-30">
          <mxGeometry width="100" height="100" relative="1" as="geometry">
            <mxPoint x="520" y="360" as="sourcePoint" />
            <mxPoint x="630" y="370" as="targetPoint" />
          </mxGeometry>
        </mxCell>
        <mxCell id="MLSnyZNdqDpaeL57f0Zs-32" value="super_admin&lt;br&gt;moderator&lt;br&gt;manager" style="text;strokeColor=none;align=center;fillColor=none;html=1;verticalAlign=middle;whiteSpace=wrap;rounded=0;" vertex="1" parent="1">
          <mxGeometry x="205" y="450" width="60" height="30" as="geometry" />
        </mxCell>
        <mxCell id="MLSnyZNdqDpaeL57f0Zs-33" value="Permissions" style="swimlane;fontStyle=0;childLayout=stackLayout;horizontal=1;startSize=26;horizontalStack=0;resizeParent=1;resizeParentMax=0;resizeLast=0;collapsible=1;marginBottom=0;align=center;fontSize=14;" vertex="1" parent="1">
          <mxGeometry x="550" y="530" width="190" height="96" as="geometry" />
        </mxCell>
        <mxCell id="MLSnyZNdqDpaeL57f0Zs-34" value="+ id: PK INT&#xa;+name: VARCHAR(255)&#xa;+role_id:FK Roles" style="text;strokeColor=none;fillColor=none;spacingLeft=4;spacingRight=4;overflow=hidden;rotatable=0;points=[[0,0.5],[1,0.5]];portConstraint=eastwest;fontSize=12;" vertex="1" parent="MLSnyZNdqDpaeL57f0Zs-33">
          <mxGeometry y="26" width="190" height="70" as="geometry" />
        </mxCell>
        <mxCell id="MLSnyZNdqDpaeL57f0Zs-35" value="get_user&lt;br&gt;change_password&lt;br&gt;delete_product" style="text;strokeColor=none;align=center;fillColor=none;html=1;verticalAlign=middle;whiteSpace=wrap;rounded=0;" vertex="1" parent="1">
          <mxGeometry x="600" y="460" width="60" height="30" as="geometry" />
        </mxCell>
        <mxCell id="MLSnyZNdqDpaeL57f0Zs-36" value="" style="edgeStyle=entityRelationEdgeStyle;fontSize=12;html=1;endArrow=ERoneToMany;rounded=0;" edge="1" parent="1">
          <mxGeometry width="100" height="100" relative="1" as="geometry">
            <mxPoint x="330" y="530" as="sourcePoint" />
            <mxPoint x="550" y="600" as="targetPoint" />
          </mxGeometry>
        </mxCell>
      </root>
    </mxGraphModel>
  </diagram>
</mxfile>
